<?xml version="1.0" encoding="UTF-8" standalone="no"?>
<svg
   width="2500"
   height="2500"
   viewBox="0 0 999.937 999.937"
   version="1.1"
   id="svg1"
   sodipodi:docname="source_icon.svg"
   inkscape:version="1.4.3 (0d15f75, 2025-12-25)"
   xmlns:inkscape="http://www.inkscape.org/namespaces/inkscape"
   xmlns:sodipodi="http://sodipodi.sourceforge.net/DTD/sodipodi-0.dtd"
   xmlns="http://www.w3.org/2000/svg"
   xmlns:svg="http://www.w3.org/2000/svg">
  <defs
     id="defs1" />
  <sodipodi:namedview
     id="namedview1"
     pagecolor="#ffffff"
     bordercolor="#000000"
     borderopacity="0.25"
     inkscape:showpageshadow="2"
     inkscape:pageopacity="0.0"
     inkscape:pagecheckerboard="0"
     inkscape:deskcolor="#d1d1d1"
     inkscape:zoom="0.21264221"
     inkscape:cx="1065.1695"
     inkscape:cy="1257.9817"
     inkscape:window-width="1488"
     inkscape:window-height="806"
     inkscape:window-x="12"
     inkscape:window-y="46"
     inkscape:window-maximized="0"
     inkscape:current-layer="svg1" />
  <path
     d="m 195.301,607.383 c -2.604,-2.604 -2.604,-5.208 0,-7.812 5.207,-5.208 11.718,-7.161 19.529,-5.859 7.812,1.302 12.369,2.604 13.671,3.906 9.114,3.906 19.205,12.694 30.271,26.366 11.066,13.671 19.855,23.11 26.366,28.318 31.248,26.04 63.146,27.993 95.696,5.859 2.604,-9.114 6.836,-16.926 12.694,-23.437 5.858,-6.51 11.393,-11.066 16.601,-13.671 5.209,-2.604 14.323,-6.51 27.343,-11.718 -42.967,-3.906 -77.795,-11.393 -104.486,-22.46 -26.691,-11.067 -47.849,-25.063 -63.473,-41.989 -20.832,-23.436 -33.527,-54.033 -38.084,-91.791 -4.558,-37.758 -1.628,-72.261 8.789,-103.509 7.812,-19.53 18.879,-37.106 33.2,-52.731 -10.416,-32.55 -8.463,-69.657 5.859,-111.321 41.664,2.604 79.422,16.926 113.274,42.966 65.1,-16.926 132.804,-17.577 203.111,-1.953 9.114,-6.51 23.111,-14.647 41.989,-24.413 18.879,-9.765 42.641,-15.299 71.285,-16.601 5.208,14.322 8.789,31.248 10.742,50.778 1.953,19.53 0.977,37.758 -2.929,54.684 29.945,31.248 45.569,72.912 46.871,124.992 0,41.664 -7.16,76.167 -21.482,103.509 -14.322,27.342 -39.711,50.127 -76.167,68.354 -24.738,11.719 -57.288,18.879 -97.65,21.483 18.229,9.114 31.574,18.554 40.037,28.319 8.464,9.765 13.997,25.063 16.602,45.895 v 61.521 l 1.952,59.566 c 3.906,6.511 8.464,12.044 13.672,16.602 5.208,4.557 9.765,7.812 13.671,9.765 3.905,1.953 5.208,4.883 3.905,8.789 -1.302,3.906 -6.51,5.859 -15.623,5.859 -22.135,0 -39.711,-7.812 -52.731,-23.437 -3.906,-6.51 -5.859,-14.321 -5.859,-23.436 v -93.744 c 0,-10.416 -2.604,-17.903 -7.812,-22.46 -5.208,-4.558 -10.416,-7.487 -15.624,-8.789 v 123.039 c 0,22.134 2.604,36.456 7.812,42.966 5.208,6.51 8.463,13.021 9.766,19.53 1.302,1.302 0.325,2.278 -2.93,2.929 -3.254,0.65 -8.788,-0.325 -16.601,-2.929 -16.926,-3.906 -28.644,-12.695 -35.154,-26.366 -6.51,-13.671 -9.765,-28.319 -9.765,-43.943 V 667.926 H 488.25 v 121.086 c 0,15.624 -3.256,30.598 -9.766,44.919 -9.113,18.229 -26.04,27.993 -50.777,29.295 -3.906,-1.302 -5.859,-2.604 -5.859,-3.905 1.302,-1.303 5.208,-7.812 11.718,-19.53 1.302,-2.604 2.93,-7.812 4.883,-15.624 1.954,-7.812 2.93,-16.926 2.93,-27.342 v -123.04 c -5.208,1.302 -10.091,4.231 -14.648,8.789 -4.557,4.558 -6.836,12.044 -6.836,22.46 v 93.744 c 0,9.113 -1.953,16.926 -5.859,23.436 -11.718,15.624 -29.295,23.437 -52.73,23.437 -9.114,0 -14.322,-1.953 -15.624,-5.859 -1.303,-2.604 -0.977,-4.883 0.977,-6.836 1.954,-1.953 4.883,-4.232 8.789,-6.836 3.906,-2.604 6.51,-4.558 7.812,-5.859 5.208,-3.906 9.113,-9.114 11.718,-15.624 3.906,-5.208 4.882,-18.879 2.929,-41.013 -1.953,-22.134 -2.279,-36.456 -0.977,-42.966 -33.853,11.718 -68.355,5.858 -103.51,-17.577 -10.416,-10.416 -20.832,-25.39 -31.248,-44.919 -7.812,-14.323 -23.436,-31.249 -46.871,-50.779 z"
     id="path1"
     sodipodi:nodetypes="ccccccccccscccccccccsccscccccccccscssccsscccssccscccccscssscscssccscccc" />
</svg>
